<svg width="36" height="36" viewBox="0 0 36 36" fill="none" xmlns="http://www.w3.org/2000/svg">
<rect width="36" height="36" rx="8" fill="#E4EFFF"/>
<path d="M18.8333 9.66663H19.0605C21.7782 9.66663 23.137 9.66663 24.0807 10.3315C24.3511 10.522 24.5911 10.7479 24.7935 11.0024C25.4999 11.8905 25.4999 13.1694 25.4999 15.7272V17.8484C25.4999 20.3178 25.4999 21.5524 25.1091 22.5385C24.4809 24.1238 23.1523 25.3742 21.468 25.9655C20.4202 26.3333 19.1084 26.3333 16.4848 26.3333C14.9855 26.3333 14.2359 26.3333 13.6372 26.1231C12.6747 25.7853 11.9155 25.0707 11.5566 24.1648C11.3333 23.6014 11.3333 22.8958 11.3333 21.4848V18" stroke="#1D4ECC" stroke-width="2" stroke-linecap="round" stroke-linejoin="round"/>
<path d="M25.4998 18C25.4998 19.5341 24.2562 20.7778 22.7221 20.7778C22.1672 20.7778 21.5131 20.6806 20.9737 20.8251C20.4944 20.9535 20.12 21.3279 19.9916 21.8072C19.8471 22.3466 19.9443 23.0007 19.9443 23.5556C19.9443 25.0897 18.7006 26.3333 17.1665 26.3333" stroke="#1D4ECC" stroke-width="2" stroke-linecap="round" stroke-linejoin="round"/>
<path d="M17.1667 13L10.5 13M13.8333 9.66663V16.3333" stroke="#1D4ECC" stroke-width="2" stroke-linecap="round"/>
</svg>
