<svg width="36" height="36" viewBox="0 0 36 36" fill="none" xmlns="http://www.w3.org/2000/svg">
<rect width="36" height="36" rx="8" fill="#3B414A"/>
<path d="M18.833 9.66663H19.0603C21.778 9.66663 23.1368 9.66663 24.0805 10.3315C24.3508 10.522 24.5909 10.7479 24.7933 11.0024C25.4997 11.8905 25.4997 13.1694 25.4997 15.7272V17.8484C25.4997 20.3178 25.4997 21.5524 25.1089 22.5385C24.4807 24.1238 23.1521 25.3742 21.4677 25.9655C20.42 26.3333 19.1082 26.3333 16.4845 26.3333C14.9853 26.3333 14.2357 26.3333 13.637 26.1231C12.6745 25.7853 11.9153 25.0707 11.5563 24.1648C11.333 23.6014 11.333 22.8958 11.333 21.4848V18" stroke="#717680" stroke-width="2" stroke-linecap="round" stroke-linejoin="round"/>
<path d="M25.4993 18C25.4993 19.5341 24.2557 20.7778 22.7216 20.7778C22.1668 20.7778 21.5127 20.6806 20.9732 20.8251C20.4939 20.9535 20.1195 21.3279 19.9911 21.8072C19.8466 22.3466 19.9438 23.0007 19.9438 23.5556C19.9438 25.0897 18.7001 26.3333 17.166 26.3333" stroke="#717680" stroke-width="2" stroke-linecap="round" stroke-linejoin="round"/>
<path d="M17.1667 13L10.5 13M13.8333 9.66663V16.3333" stroke="#717680" stroke-width="2" stroke-linecap="round"/>
</svg>
