<?xml version="1.0" encoding="UTF-8"?>
<!DOCTYPE svg PUBLIC "-//W3C//DTD SVG 1.1//EN" "http://www.w3.org/Graphics/SVG/1.1/DTD/svg11.dtd">
<!-- Creator: CorelDRAW -->
<svg xmlns="http://www.w3.org/2000/svg" xml:space="preserve" width="529.167mm" height="529.167mm" version="1.1" style="shape-rendering:geometricPrecision; text-rendering:geometricPrecision; image-rendering:optimizeQuality; fill-rule:evenodd; clip-rule:evenodd"
viewBox="0 0 52916.66 52916.66"
 xmlns:xlink="http://www.w3.org/1999/xlink"
 xmlns:xodm="http://www.corel.com/coreldraw/odm/2003">
 <defs>
  <style type="text/css">
   <![CDATA[
    .str2 {stroke:#202020;stroke-width:677.33;stroke-linecap:round;stroke-linejoin:round;stroke-miterlimit:12.7455}
    .str1 {stroke:#202020;stroke-width:677.33;stroke-linecap:round;stroke-linejoin:round;stroke-miterlimit:57.2987}
    .str0 {stroke:white;stroke-width:16.93;stroke-linecap:round;stroke-linejoin:round;stroke-miterlimit:12.7455}
    .fil3 {fill:none}
    .fil1 {fill:#202020}
    .fil0 {fill:#202020}
    .fil2 {fill:#202020;fill-rule:nonzero}
   ]]>
  </style>
 </defs>
 <g id="Слой_x0020_2" visibility="hidden">
  <metadata id="CorelCorpID_0Corel-Layer"/>
  <rect class="fil0 str0" x="-49.74" y="-561.4" width="52958.02" height="53499.8"/>
  <rect class="fil1 str0" x="-49.74" y="-747.27" width="52934.49" height="53685.67"/>
 </g>
 <g id="Слой_x0020_4">
  <metadata id="CorelCorpID_1Corel-Layer"/>
  <path class="fil2" d="M-11.33 20226.94l1423.8 879.69c403.76,249.46 877.85,374.44 1353.07,374.86 474.29,0.43 948.73,-124.03 1354.24,-373.42l764.13 -469.94c511.83,-314.77 1110.47,-471.86 1708.78,-471.32 597.38,0.53 1195.57,159.03 1707.61,475.4l769.37 475.35c403.76,249.46 877.85,374.44 1353.07,374.86 474.29,0.43 948.73,-124.03 1354.24,-373.42l764.12 -469.93c511.84,-314.77 1110.47,-471.86 1708.78,-471.33 597.37,0.53 1195.57,159.04 1707.61,475.4l769.36 475.35c403.76,249.46 877.85,374.44 1353.07,374.86 474.29,0.43 948.73,-124.03 1354.24,-373.42l764.13 -469.94c511.83,-314.78 1110.46,-471.86 1708.78,-471.33 597.38,0.54 1195.57,159.04 1707.61,475.4l769.37 475.35c403.76,249.46 877.85,374.44 1353.07,374.86 474.29,0.43 948.73,-124.03 1354.24,-373.42l764.12 -469.93c511.84,-314.77 1110.47,-471.86 1708.78,-471.33 597.37,0.53 1195.57,159.04 1707.61,475.4l769.36 475.35c403.76,249.46 877.85,374.44 1353.07,374.86 474.29,0.43 948.73,-124.03 1354.24,-373.42l764.13 -469.94c511.83,-314.78 1110.46,-471.86 1708.78,-471.33 597.38,0.54 1195.57,159.04 1707.61,475.4l769.37 475.35c403.76,249.46 877.85,374.44 1353.07,374.86 474.29,0.43 948.73,-124.03 1354.24,-373.42l764.12 -469.93c511.83,-314.77 1110.46,-471.86 1708.78,-471.32 597.36,0.53 1195.56,159.03 1707.61,475.4l769.35 475.34c403.75,249.45 877.85,374.44 1353.07,374.86 474.29,0.42 948.73,-124.04 1354.25,-373.43l764.12 -469.93c511.83,-314.78 1110.46,-471.86 1708.78,-471.33 118.82,0.11 237.68,6.48 355.88,19.09l0 679.36c-117.83,-15.75 -236.82,-23.66 -355.88,-23.77 -474.29,-0.42 -948.73,124.04 -1354.24,373.43l-764.12 469.93c-511.84,314.77 -1110.47,471.86 -1708.79,471.33 -597.36,-0.53 -1195.57,-159.04 -1707.61,-475.4l-769.35 -475.34c-403.76,-249.46 -877.85,-374.44 -1353.07,-374.86 -474.29,-0.43 -948.73,124.03 -1354.24,373.42l-764.12 469.93c-511.83,314.77 -1110.46,471.86 -1708.78,471.32 -597.36,-0.53 -1195.56,-159.03 -1707.61,-475.4l-769.37 -475.35c-403.74,-249.45 -877.83,-374.43 -1353.07,-374.86 -474.29,-0.42 -948.73,124.04 -1354.24,373.43l-764.13 469.94c-511.83,314.77 -1110.46,471.86 -1708.78,471.32 -597.36,-0.53 -1195.56,-159.03 -1707.61,-475.4l-769.36 -475.35c-403.75,-249.45 -877.84,-374.44 -1353.07,-374.86 -474.28,-0.42 -948.72,124.04 -1354.24,373.43l-764.12 469.93c-511.83,314.77 -1110.46,471.86 -1708.78,471.32 -597.36,-0.53 -1195.56,-159.03 -1707.61,-475.4l-769.37 -475.35c-403.74,-249.45 -877.83,-374.43 -1353.07,-374.86 -474.29,-0.42 -948.73,124.04 -1354.24,373.43l-764.13 469.94c-511.83,314.77 -1110.46,471.86 -1708.78,471.32 -597.36,-0.53 -1195.56,-159.03 -1707.61,-475.4l-769.36 -475.35c-403.75,-249.45 -877.84,-374.44 -1353.07,-374.86 -474.28,-0.42 -948.72,124.04 -1354.24,373.43l-764.12 469.93c-511.83,314.77 -1110.46,471.86 -1708.78,471.32 -597.36,-0.53 -1195.56,-159.03 -1707.61,-475.4l-769.37 -475.35c-403.74,-249.46 -877.84,-374.44 -1353.07,-374.86 -474.28,-0.43 -948.73,124.03 -1354.24,373.42l-764.13 469.94c-511.83,314.77 -1110.46,471.86 -1708.78,471.32 -597.36,-0.53 -1195.56,-159.03 -1707.61,-475.4l-1069.26 -660.64 0 -793.19z"/>
  <g id="_1887299625744">
   <polyline class="fil3 str1" points="14278.61,35232.23 19616.58,32078.23 23858.79,39511.49 "/>
   <line class="fil3 str1" x1="17930.39" y1="48005.8" x2="10205.5" y2= "24410.65" />
   <path class="fil3 str1" d="M11101.29 16442.27l853.91 1820.62m1266.78 2665.04l3780.63 7225.92 4505.96 -3057.32 7230.03 7423.09"/>
   <path class="fil3 str2" d="M7774.54 34379.82l-3094.89 -2734.55 4893.92 -17814.3 1527.72 2611.3 5267.73 -6513.4 3714.87 5449.18 1846.85 -1560.03c841.73,2142.41 2201.78,5603.65 3097.51,7949.07m787.41 2601.92c1037.9,2879.38 1923.54,5231.71 2922.94,8150.61l-10808.21 15486.18 -7656.34 -5817.58 -2499.51 -7808.4"/>
  </g>
  <polygon class="fil2" points="30585.2,18341.69 30581.32,16234.55 29747,16230.67 29747,15625.31 32180.11,15625.31 32180.11,16234.55 31345.79,16230.67 31349.67,18341.69 "/>
  <path id="_1" class="fil2" d="M33169.65 16680.81l1265.06 -3.88 -3.88 570.44 -1257.3 3.89 -3.88 -570.45zm50.45 1071.04l1428.04 -3.88 -3.88 593.72 -2176.99 0 3.88 -2716.38 2126.54 0 -7.76 589.84 -1362.07 3.88 -7.76 1532.82z"/>
  <path id="_2" class="fil2" d="M34749.03 18341.69l1199.09 -2716.38 756.71 0 1202.97 2716.38 -799.39 0 -939.1 -2339.97 302.69 0 -939.1 2339.97 -783.87 0zm655.82 -527.75l197.9 -566.57 1327.15 0 197.91 566.57 -1722.96 0z"/>
  <path id="_3" class="fil2" d="M39440.62 18396.02c-214.72,0 -413.28,-34.28 -595.66,-102.84 -182.39,-68.55 -340.2,-166.21 -473.43,-292.98 -133.23,-126.76 -237.36,-276.16 -312.39,-448.2 -75.02,-172.04 -112.53,-361.54 -112.53,-568.5 0,-206.97 37.51,-396.47 112.53,-568.5 75.03,-172.04 179.16,-321.44 312.39,-448.21 133.23,-126.76 291.04,-224.42 473.43,-292.98 182.38,-68.55 380.94,-102.83 595.66,-102.83 250.94,0 475.37,43.98 673.28,131.94 197.9,87.96 362.83,214.72 494.77,380.29l-488.95 442.38c-87.96,-103.48 -184.33,-182.38 -289.1,-236.71 -104.78,-54.33 -221.84,-81.49 -351.19,-81.49 -111.25,0 -213.43,18.11 -306.57,54.33 -93.13,36.21 -172.68,88.6 -238.65,157.16 -65.97,68.55 -117.71,150.69 -155.22,246.41 -37.52,95.72 -56.27,201.79 -56.27,318.21 0,116.41 18.75,222.48 56.27,318.2 37.51,95.72 89.25,177.86 155.22,246.42 65.97,68.55 145.52,120.94 238.65,157.16 93.14,36.22 195.32,54.33 306.57,54.33 129.35,0 246.41,-27.17 351.19,-81.49 104.77,-54.33 201.14,-133.24 289.1,-236.72l488.95 442.39c-131.94,162.98 -296.87,289.1 -494.77,378.35 -197.91,89.25 -422.34,133.88 -673.28,133.88z"/>
  <path id="_4" class="fil2" d="M42766.26 15625.31l764.46 0 3.88 2716.38 -764.46 0 -3.88 -2716.38zm-1047.75 2716.38l-764.47 0 -3.88 -2716.38 764.47 0 3.88 2716.38zm1102.07 -1063.27l-1156.4 3.88 -3.88 -636.41 1160.28 0 0 632.53z"/>
  <path id="_5" class="fil2" d="M44780.26 16680.81l1265.06 -3.88 -3.88 570.44 -1257.3 3.89 -3.88 -570.45zm50.45 1071.04l1428.04 -3.88 -3.88 593.72 -2176.99 0 3.88 -2716.38 2126.54 0 -7.76 589.84 -1362.07 3.88 -7.76 1532.82z"/>
  <path id="_6" class="fil2" d="M46685.61 18341.69l0 -2716.38 1241.77 0c248.36,0 462.44,40.09 642.24,120.29 179.79,80.2 318.85,195.97 417.15,347.31 98.31,151.34 147.47,330.49 147.47,537.46 0,204.37 -49.16,380.94 -147.47,529.69 -98.3,148.76 -237.36,262.59 -417.15,341.49 -179.8,78.91 -393.88,118.36 -642.24,118.36l-814.91 0 341.49 -322.09 0 1043.87 -768.35 0zm1680.28 0l-675.22 -989.54 818.8 0 679.09 989.54 -822.67 0zm-911.93 -962.38l-341.49 -353.13 768.35 0c160.39,0 280.04,-34.92 358.95,-104.77 78.9,-69.85 118.36,-166.86 118.36,-291.04 0,-126.77 -39.46,-225.07 -118.36,-294.92 -78.91,-69.85 -198.56,-104.78 -358.95,-104.78l-768.35 0 341.49 -353.13 0 1501.77z"/>
  <path class="fil2" d="M30177.45 26355.83l0 -2716.38 1241.77 0c248.36,0 462.44,40.09 642.24,120.29 179.79,80.2 318.85,195.97 417.15,347.31 98.31,151.34 147.47,330.49 147.47,537.46 0,204.37 -49.16,381.58 -147.47,531.63 -98.3,150.05 -237.36,265.82 -417.15,347.31 -179.8,81.49 -393.88,122.24 -642.24,122.24l-814.91 0 341.49 -333.73 0 1043.87 -768.35 0zm768.35 -962.38l-341.49 -353.13 768.35 0c160.39,0 280.04,-34.92 358.95,-104.77 78.9,-69.85 118.36,-166.86 118.36,-291.04 0,-126.77 -39.46,-225.07 -118.36,-294.92 -78.91,-69.85 -198.56,-104.78 -358.95,-104.78l-768.35 0 341.49 -353.13 0 1501.77z"/>
  <polygon id="_1_132" class="fil2" points="33002.49,26355.83 32998.61,23639.45 33763.08,23639.45 33766.96,25746.58 35059.18,25750.46 35063.06,26355.83 "/>
  <path id="_2_133" class="fil2" d="M35066.94 26355.83l1199.09 -2716.38 756.71 0 1202.97 2716.38 -799.39 0 -939.1 -2339.97 302.69 0 -939.1 2339.97 -783.87 0zm655.82 -527.75l197.9 -566.57 1327.15 0 197.91 566.57 -1722.96 0z"/>
  <polygon id="_3_134" class="fil2" points="38446.9,26355.83 38443.02,23639.45 39075.55,23639.45 40573.44,25447.78 40278.52,25447.78 40274.64,23639.45 41027.46,23639.45 41027.46,26355.83 40394.94,26355.83 38897.04,24547.49 39195.85,24547.49 39195.85,26355.83 "/>
  <polygon id="_4_135" class="fil2" points="41574.62,26355.83 41570.74,23639.45 42203.27,23639.45 43701.16,25447.78 43406.24,25447.78 43402.36,23639.45 44155.18,23639.45 44155.18,26355.83 43522.66,26355.83 42024.76,24547.49 42323.57,24547.49 42323.57,26355.83 "/>
  <path id="_5_136" class="fil2" d="M45400.84 24694.95l1265.06 -3.88 -3.88 570.44 -1257.3 3.89 -3.88 -570.45zm50.45 1071.04l1428.04 -3.88 -3.88 593.72 -2176.99 0 3.88 -2716.38 2126.54 0 -7.76 589.84 -1362.07 3.88 -7.76 1532.82z"/>
  <path id="_6_137" class="fil2" d="M47306.19 26355.83l0 -2716.38 1241.77 0c248.36,0 462.44,40.09 642.24,120.29 179.79,80.2 318.85,195.97 417.15,347.31 98.31,151.34 147.47,330.49 147.47,537.46 0,204.37 -49.16,380.94 -147.47,529.69 -98.3,148.76 -237.36,262.59 -417.15,341.49 -179.8,78.91 -393.88,118.36 -642.24,118.36l-814.91 0 341.49 -322.09 0 1043.87 -768.35 0zm1680.28 0l-675.22 -989.54 818.8 0 679.09 989.54 -822.67 0zm-911.93 -962.38l-341.49 -353.13 768.35 0c160.39,0 280.04,-34.92 358.95,-104.77 78.9,-69.85 118.36,-166.86 118.36,-291.04 0,-126.77 -39.46,-225.07 -118.36,-294.92 -78.91,-69.85 -198.56,-104.78 -358.95,-104.78l-768.35 0 341.49 -353.13 0 1501.77z"/>
 </g>
</svg>
