<svg width="40" height="40" viewBox="0 0 40 40" fill="none" xmlns="http://www.w3.org/2000/svg">
<rect width="40" height="40" rx="20" fill="#F4F7FF"/>
<g clip-path="url(#clip0_8971_27347)">
<path d="M23.3333 23.3332L20 19.9999M20 19.9999L16.6666 23.3332M20 19.9999V27.4999M26.9916 25.3249C27.8044 24.8818 28.4465 24.1806 28.8165 23.3321C29.1866 22.4835 29.2635 21.5359 29.0351 20.6388C28.8068 19.7417 28.2862 18.9462 27.5555 18.3778C26.8248 17.8094 25.9257 17.5005 25 17.4999H23.95C23.6977 16.5243 23.2276 15.6185 22.5749 14.8507C21.9222 14.0829 21.104 13.4731 20.1817 13.0671C19.2594 12.661 18.2571 12.4694 17.2501 12.5065C16.243 12.5436 15.2575 12.8085 14.3676 13.2813C13.4777 13.7541 12.7066 14.4225 12.1122 15.2362C11.5177 16.05 11.1155 16.9879 10.9358 17.9794C10.756 18.9709 10.8034 19.9903 11.0743 20.961C11.3452 21.9316 11.8327 22.8281 12.5 23.5832" stroke="#1D4ECC" stroke-width="1.66667" stroke-linecap="round" stroke-linejoin="round"/>
</g>
<defs>
<clipPath id="clip0_8971_27347">
<rect width="20" height="20" fill="white" transform="translate(10 10)"/>
</clipPath>
</defs>
</svg>
