<svg width="56" height="56" viewBox="0 0 56 56" fill="none" xmlns="http://www.w3.org/2000/svg">
<circle cx="28" cy="28" r="28" fill="#E7FFEB"/>
<g clip-path="url(#clip0_9396_45039)">
<path fill-rule="evenodd" clip-rule="evenodd" d="M34 19.7499C33.1716 19.7499 32.5 20.4215 32.5 21.2499V34.4999C32.5 35.3283 33.1716 35.9999 34 35.9999H35C35.8284 35.9999 36.5 35.3283 36.5 34.4999V21.2499C36.5 20.4215 35.8284 19.7499 35 19.7499H34ZM26 24.9999C26 24.1715 26.6716 23.4999 27.5 23.4999H28.5C29.3284 23.4999 30 24.1715 30 24.9999V34.4999C30 35.3283 29.3284 35.9999 28.5 35.9999H27.5C26.6716 35.9999 26 35.3283 26 34.4999V24.9999ZM19.5 28.7499C19.5 27.9215 20.1716 27.2499 21 27.2499H22C22.8284 27.2499 23.5 27.9215 23.5 28.7499V34.4999C23.5 35.3283 22.8284 35.9999 22 35.9999H21C20.1716 35.9999 19.5 35.3283 19.5 34.4999V28.7499Z" fill="#258D50"/>
</g>
<defs>
<clipPath id="clip0_9396_45039">
<rect width="20" height="20" fill="white" transform="translate(18 18)"/>
</clipPath>
</defs>
</svg>
