<svg width="56" height="56" viewBox="0 0 56 56" fill="none" xmlns="http://www.w3.org/2000/svg">
<circle cx="28" cy="28" r="28" fill="#FFF3F0"/>
<g clip-path="url(#clip0_9438_7847)">
<path fill-rule="evenodd" clip-rule="evenodd" d="M22 19.7499C22.8284 19.7499 23.5 20.4215 23.5 21.2499V34.4999C23.5 35.3283 22.8284 35.9999 22 35.9999H21C20.1716 35.9999 19.5 35.3283 19.5 34.4999V21.2499C19.5 20.4215 20.1716 19.7499 21 19.7499H22ZM30 24.9999C30 24.1715 29.3284 23.4999 28.5 23.4999H27.5C26.6716 23.4999 26 24.1715 26 24.9999V34.4999C26 35.3283 26.6716 35.9999 27.5 35.9999H28.5C29.3284 35.9999 30 35.3283 30 34.4999V24.9999ZM36.5 28.7499C36.5 27.9215 35.8284 27.2499 35 27.2499H34C33.1716 27.2499 32.5 27.9215 32.5 28.7499V34.4999C32.5 35.3283 33.1716 35.9999 34 35.9999H35C35.8284 35.9999 36.5 35.3283 36.5 34.4999V28.7499Z" fill="#FF3A3A"/>
</g>
<defs>
<clipPath id="clip0_9438_7847">
<rect width="20" height="20" fill="white" transform="matrix(-1 0 0 1 38 18)"/>
</clipPath>
</defs>
</svg>
