<svg width="20" height="20" viewBox="0 0 20 20" fill="none" xmlns="http://www.w3.org/2000/svg">
<g clip-path="url(#clip0_8739_1092)">
<path d="M15.0754 8.51667L9.24207 18.0333C9.1276 18.2183 8.92624 18.3316 8.70874 18.3333H8.54207C8.42535 18.3331 8.31385 18.2849 8.23374 18.2C8.15404 18.1148 8.11461 17.9995 8.12541 17.8833L8.59207 12.5H5.61707C5.39324 12.4976 5.18731 12.3772 5.07541 12.1833L4.91707 11.9083C4.83754 11.7778 4.83754 11.6138 4.91707 11.4833L10.7504 1.96667C10.868 1.77664 11.077 1.66264 11.3004 1.66667H11.4671C11.5838 1.66688 11.6953 1.7151 11.7754 1.8C11.8551 1.88523 11.8945 2.00048 11.8837 2.11667L11.4087 7.5H14.3837C14.6076 7.50242 14.8135 7.62281 14.9254 7.81667L15.0837 8.09167C15.1607 8.22373 15.1575 8.38773 15.0754 8.51667Z" fill="#FF3A3A"/>
</g>
<defs>
<clipPath id="clip0_8739_1092">
<rect width="20" height="20" fill="white"/>
</clipPath>
</defs>
</svg>
