<svg width="314" height="319" viewBox="0 0 314 319" fill="none" xmlns="http://www.w3.org/2000/svg">
<path d="M311.294 163.717H312.406C313.02 163.717 313.517 164.217 313.517 164.834V237.762C313.517 238.379 313.02 238.878 312.406 238.878H311.294V163.717Z" fill="#303030"/>
<path d="M2.22266 254.506L1.11089 254.506C0.496874 254.506 -0.000880198 254.006 -0.000880144 253.39L-0.000876321 209.484C-0.000876268 208.867 0.496878 208.367 1.11089 208.367L2.22266 208.367L2.22266 254.506Z" fill="#303030"/>
<path d="M2.22266 193.484L1.11089 193.484C0.496874 193.484 -0.000880198 192.984 -0.000880144 192.368L-0.000876321 148.462C-0.000876268 147.845 0.496878 147.346 1.11089 147.346L2.22266 147.346L2.22266 193.484Z" fill="#333333"/>
<path d="M2.22241 125.021L1.11064 125.021C0.496634 125.021 -0.00112148 124.521 -0.00112142 123.904L-0.00111954 102.323C-0.00111949 101.707 0.496635 101.207 1.11065 101.207L2.22241 101.207L2.22241 125.021Z" fill="#333333"/>
<path fill-rule="evenodd" clip-rule="evenodd" d="M4.58034 33.4236C2.22241 40.7098 2.22241 49.713 2.22241 67.7195V570.778C2.22241 588.785 2.22241 597.788 4.58034 605.074C9.34586 619.8 20.8448 631.345 35.5116 636.13C42.7685 638.498 51.7355 638.498 69.6695 638.498H243.846C261.78 638.498 270.747 638.498 278.004 636.13C292.671 631.345 304.17 619.8 308.935 605.074C311.293 597.788 311.293 588.785 311.293 570.778V67.7194C311.293 49.713 311.293 40.7098 308.935 33.4236C304.17 18.6976 292.671 7.15221 278.004 2.36745C270.747 0 261.78 0 243.846 0H69.6695C51.7355 0 42.7685 0 35.5116 2.36745C20.8448 7.15221 9.34586 18.6976 4.58034 33.4236ZM80.7878 18.2322V21.5809L80.8407 21.5793L80.7876 21.953C80.7876 30.7894 87.9221 37.9526 96.7229 37.9526H216.794C225.594 37.9526 232.729 30.7894 232.729 21.953L232.676 21.5793L232.729 21.5809V18.2322C232.729 15.9717 234.554 14.1392 236.805 14.1392L246.352 14.1392C261.276 14.1392 268.738 14.1392 274.689 16.3971C284.044 19.9461 291.428 27.36 294.963 36.7521C297.211 42.7274 297.211 50.2197 297.211 65.2041V573.294C297.211 588.278 297.211 595.77 294.963 601.746C291.428 611.138 284.044 618.552 274.689 622.101C268.738 624.358 261.276 624.358 246.352 624.358H67.1647C52.2405 624.358 44.7784 624.358 38.8271 622.101C29.4728 618.552 22.0886 611.138 18.554 601.746C16.3051 595.77 16.3051 588.278 16.3051 573.294V65.2041C16.3051 50.2197 16.3051 42.7274 18.554 36.7521C22.0886 27.36 29.4728 19.9461 38.8271 16.3971C44.7784 14.1392 52.2405 14.1392 67.1647 14.1392L76.7113 14.1392C78.9627 14.1392 80.7878 15.9717 80.7878 18.2322Z" fill="#333333"/>
<path fill-rule="evenodd" clip-rule="evenodd" d="M244.143 1.48855H69.3736C51.6578 1.48855 42.9757 1.49774 35.9702 3.78316C21.7547 8.42069 10.6096 19.6108 5.99067 33.8837C3.71443 40.9175 3.70529 49.6347 3.70529 67.422V571.076C3.70529 588.863 3.71443 597.581 5.99067 604.614C10.6096 618.887 21.7547 630.077 35.9702 634.715C42.9757 637 51.6578 637.009 69.3736 637.009H244.143C261.859 637.009 270.541 637 277.547 634.715C291.762 630.077 302.907 618.887 307.526 604.614C309.803 597.581 309.812 588.863 309.812 571.076V67.422C309.812 49.6347 309.803 40.9175 307.526 33.8837C302.907 19.6108 291.762 8.42069 277.547 3.78316C270.541 1.49774 261.859 1.48855 244.143 1.48855ZM5.28576 33.6537C2.96411 40.8279 2.96411 49.6926 2.96411 67.422V571.076C2.96411 588.805 2.96411 597.67 5.28576 604.844C9.97797 619.344 21.3 630.711 35.7411 635.423C42.8865 637.754 51.7155 637.754 69.3736 637.754H244.143C261.801 637.754 270.63 637.754 277.776 635.423C292.217 630.711 303.539 619.344 308.231 604.844C310.553 597.67 310.553 588.805 310.553 571.076V67.422C310.553 49.6926 310.553 40.8279 308.231 33.6537C303.539 19.1543 292.217 7.78656 277.776 3.07541C270.63 0.744385 261.801 0.744385 244.143 0.744385H69.3736C51.7155 0.744385 42.8865 0.744385 35.7411 3.07541C21.3 7.78656 9.97797 19.1543 5.28576 33.6537Z" fill="#303030"/>
<path fill-rule="evenodd" clip-rule="evenodd" d="M8.10697 34.5735C5.93042 41.2992 5.93042 49.6099 5.93042 66.2312V572.267C5.93042 588.888 5.93042 597.199 8.10697 603.924C12.5059 617.518 23.1203 628.175 36.6589 632.591C43.3576 634.777 51.6348 634.777 68.1893 634.777H245.331C261.885 634.777 270.162 634.777 276.861 632.591C290.4 628.175 301.014 617.518 305.413 603.924C307.59 597.199 307.59 588.888 307.59 572.267V66.2312C307.59 49.6099 307.59 41.2992 305.413 34.5735C301.014 20.9803 290.4 10.323 276.861 5.90628C270.162 3.72095 261.885 3.72095 245.331 3.72095H68.1893C51.6348 3.72095 43.3576 3.72095 36.6589 5.90628C23.1203 10.323 12.5059 20.9803 8.10697 34.5735ZM80.7891 18.2323V21.581L80.842 21.5794L80.7888 21.9531C80.7888 30.7894 87.9233 37.9527 96.7242 37.9527H216.795C225.596 37.9527 232.73 30.7894 232.73 21.9531L232.677 21.5794L232.73 21.581V18.2323C232.73 15.9718 234.555 14.1393 236.806 14.1393L246.353 14.1393C261.277 14.1393 268.739 14.1393 274.691 16.3972C284.045 19.9462 291.429 27.3601 294.964 36.7522C297.213 42.7275 297.213 50.2198 297.213 65.2042V573.294C297.213 588.278 297.213 595.77 294.964 601.746C291.429 611.138 284.045 618.552 274.691 622.101C268.739 624.359 261.277 624.359 246.353 624.359H67.166C52.2418 624.359 44.7797 624.359 38.8283 622.101C29.4741 618.552 22.0899 611.138 18.5552 601.746C16.3064 595.77 16.3064 588.278 16.3064 573.294V65.2042C16.3064 50.2198 16.3064 42.7275 18.5552 36.7522C22.0899 27.3601 29.4741 19.9462 38.8283 16.3972C44.7797 14.1393 52.2418 14.1393 67.166 14.1393L76.7126 14.1393C78.964 14.1393 80.7891 15.9718 80.7891 18.2323Z" fill="#121515"/>
<rect x="245.33" width="4.44705" height="3.72085" fill="#414141"/>
<rect x="307.589" y="63.9985" width="3.70594" height="4.46502" fill="#414141"/>
<rect x="2.22363" y="63.9985" width="3.70589" height="4.46502" fill="#414141"/>
<path fill-rule="evenodd" clip-rule="evenodd" d="M188.259 29.7668C191.533 29.7668 194.188 27.1014 194.188 23.8135C194.188 20.5255 191.533 17.8601 188.259 17.8601C184.984 17.8601 182.329 20.5255 182.329 23.8135C182.329 27.1014 184.984 29.7668 188.259 29.7668Z" fill="#262C2D"/>
<path fill-rule="evenodd" clip-rule="evenodd" d="M188.258 27.5342C190.305 27.5342 191.964 25.8683 191.964 23.8134C191.964 21.7584 190.305 20.0925 188.258 20.0925C186.211 20.0925 184.552 21.7584 184.552 23.8134C184.552 25.8683 186.211 27.5342 188.258 27.5342Z" fill="#121515"/>
<path opacity="0.4" fill-rule="evenodd" clip-rule="evenodd" d="M188.259 23.0698C188.669 23.0698 189.001 22.7365 189.001 22.3253C189.001 21.9141 188.669 21.5808 188.259 21.5808C187.85 21.5808 187.518 21.9141 187.518 22.3253C187.518 22.7365 187.85 23.0698 188.259 23.0698Z" fill="#636F73"/>
<path fill-rule="evenodd" clip-rule="evenodd" d="M138.601 23.8133C138.601 22.5803 139.6 21.5808 140.833 21.5808H172.686C173.919 21.5808 174.918 22.5803 174.918 23.8133C174.918 25.0463 173.919 26.0458 172.686 26.0458H140.833C139.6 26.0458 138.601 25.0463 138.601 23.8133Z" fill="#262C2D"/>
</svg>
