<svg width="32" height="32" viewBox="0 0 32 32" fill="none" xmlns="http://www.w3.org/2000/svg">
    <path d="M15.9996 2.66667C13.5242 2.66667 11.1503 3.65 9.39992 5.40034C7.64958 7.15068 6.66625 9.52465 6.66625 12V16.704C6.66644 16.9108 6.61851 17.1149 6.52625 17.3L4.23691 21.8773C4.12508 22.101 4.07228 22.3495 4.08351 22.5992C4.09475 22.849 4.16965 23.0918 4.30111 23.3045C4.43257 23.5171 4.61621 23.6927 4.8346 23.8144C5.053 23.9362 5.29889 24 5.54892 24H26.4502C26.7003 24 26.9462 23.9362 27.1646 23.8144C27.383 23.6927 27.5666 23.5171 27.6981 23.3045C27.8295 23.0918 27.9044 22.849 27.9157 22.5992C27.9269 22.3495 27.8741 22.101 27.7622 21.8773L25.4742 17.3C25.3815 17.115 25.3331 16.9109 25.3329 16.704V12C25.3329 9.52465 24.3496 7.15068 22.5992 5.40034C20.8489 3.65 18.4749 2.66667 15.9996 2.66667ZM15.9996 28C15.172 28.0004 14.3647 27.7442 13.6889 27.2666C13.0131 26.789 12.5021 26.1135 12.2262 25.3333H19.7729C19.4971 26.1135 18.986 26.789 18.3102 27.2666C17.6344 27.7442 16.8271 28.0004 15.9996 28Z" fill="#000"/>
</svg>
