<svg width="32" height="32" viewBox="0 0 32 32" fill="none" xmlns="http://www.w3.org/2000/svg">
<g clip-path="url(#clip0_248_2126)">
<path d="M14.0001 27H19.0001C19.0001 28.4912 18.4782 30 17.0001 30C15.522 30 14.0001 28.4912 14.0001 27ZM26.0001 20C25.247 19.2412 25.001 19.0738 25.0001 18V14C25.0001 12.2474 24.0424 10.4021 23.0001 9L22.0001 7C21.242 5.98019 20.2637 6 19.0001 6H18.0001V4C18.0001 3.62721 17.3696 3 17.0001 3H16.0001C15.6306 3 15.0001 3.62721 15.0001 4V6H14.0001C12.7365 6 11.7583 5.98019 11.0001 7L10.0001 9C8.95777 10.4021 8.00011 12.2474 8.00011 14V18C7.99917 19.0738 7.75319 19.2412 7.00011 20L6.00011 22C5.75289 22.2515 6.00159 21.6458 6.00011 22V23C6.00011 23.7456 6.26106 25 7.00011 25H26.0001C26.7392 25 27.0001 23.7456 27.0001 23V22C26.9986 21.6458 27.2473 22.2515 27.0001 22L26.0001 20ZM8.00011 7C8.15974 6.79041 8.20436 7.16554 8.00011 7L6.00011 6C5.88823 5.90613 6.14473 4.98377 6.00011 5C5.87342 5.02851 6.07067 5.89008 6.00011 6C4.40507 8.14104 3.15018 10.326 3.00011 13C2.98668 13.1862 2.86786 13.8694 3.00011 14C3.12265 14.1382 3.81629 14.0009 4.00011 14H5.00011C5.35671 13.9936 5.97919 13.3592 6.00011 13C6.13938 10.8943 6.7505 8.69245 8.00011 7ZM27.0001 6C26.9161 5.87885 27.1458 5.01612 27.0001 5C26.8516 4.98602 27.1181 5.90794 27.0001 6L25.0001 7C24.7959 7.16554 24.8405 6.79041 25.0001 7C26.2736 8.68478 26.8413 10.8873 27.0001 13C27.0142 13.357 27.646 13.9931 28.0001 14H29.0001C29.1832 13.9975 29.8756 14.1355 30.0001 14C30.1267 13.8647 29.9976 13.186 30.0001 13C29.8438 10.3273 28.5895 8.14413 27.0001 6Z" fill="#202020"/>
</g>
<defs>
<clipPath id="clip0_248_2126">
<rect width="32" height="32" fill="white"/>
</clipPath>
</defs>
</svg>
