<svg width="40" height="40" viewBox="0 0 40 40" fill="none" xmlns="http://www.w3.org/2000/svg">
<rect width="40" height="40" rx="20" fill="#F4F7FF"/>
<g clip-path="url(#clip0_8983_31706)">
<path d="M28.3334 19.2335V20.0002C28.3323 21.7972 27.7504 23.5458 26.6745 24.9851C25.5985 26.4244 24.0861 27.4773 22.3628 27.9868C20.6395 28.4963 18.7977 28.4351 17.1121 27.8124C15.4264 27.1896 13.9872 26.0386 13.0092 24.5311C12.0311 23.0236 11.5665 21.2403 11.6848 19.4471C11.803 17.654 12.4977 15.9472 13.6653 14.5811C14.8328 13.2151 16.4107 12.263 18.1635 11.867C19.9163 11.471 21.7502 11.6522 23.3917 12.3835M28.3334 13.3335L20 21.6752L17.5 19.1752" stroke="#1D4ECC" stroke-width="1.66667" stroke-linecap="round" stroke-linejoin="round"/>
</g>
<defs>
<clipPath id="clip0_8983_31706">
<rect width="20" height="20" fill="white" transform="translate(10 10)"/>
</clipPath>
</defs>
</svg>
