<svg width="22" height="22" viewBox="0 0 22 22" fill="none" xmlns="http://www.w3.org/2000/svg">
<path d="M5.66866 5.66659C5.66866 2.72107 8.05737 0.333252 11.004 0.333252C13.9506 0.333252 16.3394 2.72107 16.3394 5.66659C16.3394 8.6121 13.9506 10.9999 11.004 10.9999C9.58898 10.9999 8.23192 10.438 7.23134 9.43782C6.23077 8.43763 5.66866 7.08107 5.66866 5.66659ZM21.528 19.7333L19.6073 15.8799C18.9286 14.521 17.5386 13.6636 16.0192 13.6666H5.98878C4.4694 13.6636 3.07941 14.521 2.40075 15.8799L0.480028 19.7333C0.271991 20.1459 0.292563 20.6369 0.534399 21.0307C0.776235 21.4246 1.20484 21.6652 1.66714 21.6666H20.3409C20.8032 21.6652 21.2318 21.4246 21.4736 21.0307C21.7155 20.6369 21.736 20.1459 21.528 19.7333Z" fill="white"/>
</svg>
