<svg width="32" height="32" viewBox="0 0 32 32" fill="none" xmlns="http://www.w3.org/2000/svg">
<g clip-path="url(#clip0_1061_167)">
<path d="M10.0001 10C10.0001 7.1005 12.1885 5 15.0001 5C17.8116 5 21.0001 7.1005 21.0001 10C21.0001 12.8995 17.8116 16 15.0001 16C13.6499 16 12.9548 14.9846 12.0001 14C11.0454 13.0154 10.0001 11.3924 10.0001 10ZM26.0001 24L24.0001 20C23.3525 18.6624 21.4498 17.9971 20.0001 18H11.0001C9.55035 17.9971 7.6476 18.6624 7.00006 20L5.00006 24C4.80156 24.4062 4.76931 24.6123 5.00006 25C5.23081 25.3877 5.55896 25.9986 6.00006 26H25.0001C25.4412 25.9986 25.7693 25.3877 26.0001 25C26.2308 24.6123 26.1986 24.4062 26.0001 24Z" fill="#202020"/>
</g>
<defs>
<clipPath id="clip0_1061_167">
<rect width="32" height="32" fill="white"/>
</clipPath>
</defs>
</svg>
