<svg width="23" height="21" viewBox="0 0 23 21" fill="none" xmlns="http://www.w3.org/2000/svg">
<path d="M6.00006 5C6.00006 2.1005 8.18853 0 11.0001 0C13.8116 0 17.0001 2.1005 17.0001 5C17.0001 7.8995 13.8116 11 11.0001 11C9.64992 11 8.95476 9.98457 8.00006 9C7.04536 8.01543 6.00006 6.39239 6.00006 5ZM22.0001 19L20.0001 15C19.3525 13.6624 17.4498 12.9971 16.0001 13H7.00006C5.55035 12.9971 3.6476 13.6624 3.00006 15L1.00006 19C0.801562 19.4062 0.769313 19.6123 1.00006 20C1.23081 20.3877 1.55896 20.9986 2.00006 21H21.0001C21.4412 20.9986 21.7693 20.3877 22.0001 20C22.2308 19.6123 22.1986 19.4062 22.0001 19Z" fill="#202020"/>
</svg>
