<svg width="80" height="60" viewBox="0 0 80 60" fill="none" xmlns="http://www.w3.org/2000/svg">
<path d="M9.98633 16.5953C10.7768 16.596 11.5683 16.7809 12.2725 17.1499L12.5684 17.3189L13.7314 18.0425L13.9658 18.1763C14.4424 18.4257 14.9714 18.5689 15.5088 18.605L15.7783 18.6138C16.4957 18.6145 17.2138 18.4243 17.8271 18.0445L18.9824 17.3296C19.6595 16.9103 20.4368 16.6744 21.2266 16.6226L21.5654 16.6119C22.3558 16.6126 23.1474 16.7976 23.8516 17.1665L24.1475 17.3355L25.3115 18.0591C25.8457 18.3914 26.461 18.5795 27.0879 18.6216L27.3574 18.6304C27.9851 18.631 28.6129 18.4856 29.1709 18.1949L29.4062 18.0621L30.5615 17.3462C31.2386 16.9269 32.0159 16.691 32.8057 16.6392L33.1455 16.6285C33.9357 16.6293 34.7267 16.8143 35.4307 17.1831L35.7266 17.3521L36.8906 18.0757C37.4251 18.4082 38.0408 18.5962 38.668 18.6382L38.9365 18.647C39.5641 18.6476 40.192 18.5021 40.75 18.2115L40.9854 18.0787L42.1406 17.3628C42.8176 16.9436 43.5951 16.7077 44.3848 16.6558L44.7246 16.6451C45.5148 16.6458 46.3058 16.8309 47.0098 17.1997L47.3057 17.3687L48.4697 18.0923C49.0042 18.4249 49.6199 18.6128 50.2471 18.6548L50.5156 18.6636C51.1435 18.6642 51.7719 18.519 52.3301 18.2281L52.5645 18.0953L53.7197 17.3794C54.397 16.96 55.1748 16.7241 55.9648 16.6724L56.3037 16.6617C57.0939 16.6624 57.8849 16.8475 58.5889 17.2164L58.8857 17.3853L60.0488 18.1089C60.5832 18.4414 61.199 18.6294 61.8262 18.6714L62.0957 18.6802C62.7234 18.6807 63.3512 18.5355 63.9092 18.2447L64.1436 18.1119L65.2988 17.396C65.9761 16.9766 66.754 16.7407 67.5439 16.689L67.8828 16.6783C68.673 16.679 69.4639 16.8641 70.168 17.233L70.4648 17.4019L71.6279 18.1255C72.1623 18.458 72.7781 18.646 73.4053 18.688L73.6748 18.6968C74.3025 18.6973 74.9303 18.5521 75.4883 18.2613L75.7227 18.1285L76.8779 17.4126C77.5551 16.9932 78.3331 16.7574 79.123 16.7056L79.4619 16.6949C79.6412 16.695 79.8207 16.7041 79.999 16.7232V17.7564C79.9102 17.7445 79.8209 17.736 79.7314 17.73L79.4619 17.7212C78.8343 17.7207 78.2064 17.8651 77.6484 18.1558L77.4141 18.2896L76.2578 19.0054C75.4841 19.4845 74.5792 19.7239 73.6748 19.7232C72.8845 19.7225 72.0928 19.5374 71.3887 19.1685L71.0928 18.9986L69.9287 18.2749C69.3946 17.9427 68.7791 17.7555 68.1523 17.7134L67.8828 17.7046C67.2553 17.7041 66.6273 17.8486 66.0693 18.1392L65.834 18.273L64.6787 18.9888C63.905 19.4679 63.0001 19.7073 62.0957 19.7066C61.3054 19.7059 60.5137 19.5208 59.8096 19.1519L59.5137 18.982L58.3496 18.2583C57.8152 17.9259 57.1994 17.7388 56.5723 17.6968L56.3037 17.688C55.6762 17.6875 55.0482 17.832 54.4902 18.1226L54.2549 18.2564L53.1797 18.9224L53.0996 18.9722C52.3258 19.4514 51.4202 19.6908 50.5156 19.69C49.7255 19.6892 48.9344 19.5041 48.2305 19.1353L47.9346 18.9654L46.7705 18.2417C46.2361 17.9093 45.6203 17.7222 44.9932 17.6802L44.7246 17.6705C44.0971 17.6699 43.4691 17.8154 42.9111 18.106L42.6758 18.2398L41.6123 18.899L41.5205 18.9556C40.7467 19.4348 39.8411 19.6742 38.9365 19.6734L38.5986 19.6617C38.5954 19.6614 38.5921 19.6609 38.5889 19.6607C37.9161 19.6139 37.252 19.4333 36.6514 19.1187L36.3545 18.9488L35.1914 18.2251C34.6571 17.8927 34.0412 17.7057 33.4141 17.6636L33.1455 17.6539C32.4374 17.6532 31.7292 17.8394 31.1211 18.2095C31.1132 18.2143 31.1046 18.2183 31.0967 18.2232L29.9414 18.939C29.1675 19.4183 28.2621 19.6576 27.3574 19.6568L27.0195 19.6451C26.6814 19.6222 26.3455 19.5656 26.0186 19.4751C25.6917 19.3847 25.374 19.2602 25.0723 19.1021L24.7754 18.9322L23.6123 18.2085C23.0779 17.8761 22.4621 17.6891 21.835 17.647L21.5654 17.6372C20.8575 17.6367 20.15 17.8229 19.542 18.1929C19.5341 18.1977 19.5255 18.2017 19.5176 18.2066L18.3623 18.9224C17.5884 19.4017 16.683 19.641 15.7783 19.6402L15.4395 19.6285C15.2142 19.6132 14.9899 19.5829 14.7686 19.5376C14.3259 19.4471 13.8954 19.2962 13.4932 19.0855L13.1963 18.9156L12.0332 18.1919C11.4989 17.8595 10.883 17.6725 10.2559 17.6304L9.98633 17.6206C9.27836 17.62 8.57086 17.8063 7.96289 18.1763C7.95493 18.1812 7.9464 18.1851 7.93848 18.19L6.7832 18.9058C6.00934 19.3851 5.10386 19.6234 4.19922 19.6226L3.86035 19.6119C3.18429 19.5661 2.51658 19.3851 1.91309 19.0689L1.61719 18.899L0.000976562 17.8931V16.6861L2.15234 18.0259L2.38672 18.1597C2.86332 18.409 3.39234 18.5514 3.92969 18.5874L4.19922 18.5972C4.82689 18.5978 5.45466 18.4524 6.0127 18.1617L6.24707 18.0279L7.40332 17.313C8.0804 16.8937 8.85767 16.6578 9.64746 16.606L9.98633 16.5953Z" fill="#202020" stroke="#202020" stroke-width="0.00141782"/>
<path d="M21.6084 39.5423L29.6805 34.738L36.0956 46.0606" stroke="#202020" stroke-width="0.960334" stroke-miterlimit="57.2987" stroke-linecap="round" stroke-linejoin="round"/>
<path d="M27.1318 58.9991L15.4502 23.0582" stroke="#202020" stroke-width="0.960334" stroke-miterlimit="57.2987" stroke-linecap="round" stroke-linejoin="round"/>
<path d="M16.8047 10.9214L18.096 13.6947M20.0116 17.7541L25.7287 28.7609L32.5426 24.1039L43.4758 35.411" stroke="#202020" stroke-width="0.960334" stroke-miterlimit="57.2987" stroke-linecap="round" stroke-linejoin="round"/>
<path d="M37.8649 19.0324C36.5104 15.4597 34.4537 10.1875 33.1809 6.92408L30.3881 9.30037L24.7704 1L16.8046 10.9214L14.4943 6.9438L7.09375 34.0791L11.7738 38.2445L15.5536 50.1385L27.1315 59L43.4757 35.411C41.9644 30.9648 40.6251 27.3816 39.0556 22.9957" stroke="#202020" stroke-width="0.960334" stroke-miterlimit="12.7455" stroke-linecap="round" stroke-linejoin="round"/>
<path d="M46.2617 10.6039L45.001 10.598V9.6781H48.6787V10.6029L47.418 10.598V10.599L47.417 10.7084L47.4229 13.8129H46.2686L46.2627 10.6049H46.3701L46.2617 10.6039Z" fill="#202020" stroke="#202020" stroke-width="0.00141782"/>
<path d="M50.3252 12.9154H50.252L50.2549 12.1527L50.1826 12.1537L49.9873 12.1547L50.1807 12.1527L50.1768 11.4779V11.2845L50.1826 12.1527L50.2549 12.1517L50.2598 11.2845L50.1768 11.2855V11.2836L50.2598 11.2826L50.2637 10.5814L50.2646 10.4916V10.5804L52.3232 10.5746L52.335 9.6781H49.1211L49.1152 13.8129H52.4053L52.4102 12.9105L50.3252 12.9154ZM50.3252 12.9154L50.3438 12.9164H50.2529L50.3252 12.9154ZM52.083 12.1469H52.084L50.2559 12.1517L50.2607 11.2845L52.0879 11.2797L52.083 12.1469Z" fill="#202020" stroke="#202020" stroke-width="0.00141782"/>
<path d="M55.8623 12.1478L56.1621 13.0092H55.8135L55.4697 12.1478H55.8623ZM55.4688 12.1478L55.8125 13.0092H54.0723L54.415 12.1478H55.4688ZM54.4141 12.1478L54.0703 13.0092H53.5576L53.8574 12.1478H54.4141ZM53.8555 12.1469L53.5566 13.0101H53.5576L53.5596 13.0111H54.0703L53.75 13.8129H52.5664L54.3789 9.67713V9.6781H55.5225L57.3418 13.8129H56.1338L55.8135 13.0111H56.1631V13.0092L55.8643 12.1469H55.4697L54.9424 10.8246L55.1719 10.2504H55.1709L55.1689 10.2494H54.7129V10.2504L54.9414 10.8236L54.4141 12.1469H53.8564V12.1449L53.8555 12.1469ZM55.1699 10.2513L54.9414 10.8217L54.7139 10.2513H55.1699Z" fill="#202020" stroke="#202020" stroke-width="0.00141782"/>
<path d="M59.6592 9.59575C59.9436 9.59575 60.206 9.63279 60.4453 9.70805L60.6777 9.79594C60.9016 9.8962 61.0976 10.0299 61.2656 10.1963C61.3218 10.2519 61.3749 10.3111 61.4248 10.3741L60.6865 11.0469C60.587 10.9292 60.48 10.8328 60.3662 10.7569L60.25 10.6875C60.0916 10.6048 59.9143 10.5636 59.7188 10.5635C59.5665 10.5635 59.4257 10.5877 59.2959 10.6329L59.2549 10.6465C59.149 10.688 59.0544 10.7432 58.9717 10.8125L58.8936 10.8858C58.7937 10.9903 58.715 11.1159 58.6582 11.2618L58.6211 11.3741C58.5892 11.4892 58.5733 11.6133 58.5732 11.7461C58.5732 11.9235 58.6014 12.0856 58.6582 12.2315L58.7051 12.337C58.7388 12.4046 58.7778 12.4671 58.8223 12.5245L58.8936 12.6065C58.9684 12.6848 59.0544 12.7502 59.1523 12.8008L59.2549 12.8467C59.3957 12.9018 59.5506 12.9297 59.7188 12.9297C59.9143 12.9297 60.0916 12.8875 60.25 12.8047L60.3662 12.7364C60.4803 12.6603 60.5867 12.5626 60.6865 12.4444L61.4248 13.1172C61.2753 13.3032 61.0982 13.4582 60.8926 13.5811L60.6777 13.6934C60.5048 13.7719 60.3179 13.8253 60.1182 13.8584C59.9723 13.8827 59.8193 13.8975 59.6592 13.8975C59.4159 13.8975 59.1865 13.8683 58.9707 13.8096L58.7588 13.7403C58.552 13.662 58.3661 13.5589 58.2012 13.4307L58.043 13.295L57.9004 13.1436C57.8932 13.1351 57.887 13.1258 57.8799 13.1172C57.7551 12.9661 57.6518 12.7982 57.5713 12.6123L57.4971 12.4102C57.4333 12.2038 57.4014 11.9824 57.4014 11.7461C57.4014 11.5098 57.4333 11.2885 57.4971 11.0821L57.5713 10.8809C57.6563 10.6845 57.7659 10.5073 57.9004 10.3497L58.043 10.1983C58.194 10.0535 58.3667 9.93383 58.5596 9.83891L58.7588 9.752C59.0344 9.64766 59.3347 9.59579 59.6592 9.59575ZM60.6738 12.458L60.6787 12.4512C60.681 12.4485 60.6842 12.4461 60.6865 12.4434L60.6738 12.458Z" fill="#202020" stroke="#202020" stroke-width="0.00141782"/>
<path d="M64.7705 11.2308H64.7715V12.4047L64.7705 12.1947V12.1957H64.6924L64.6953 13.8129H65.8496L65.8438 9.6781H64.6895L64.6914 11.2308H64.7705ZM64.7705 11.2308V12.1937H64.6924L64.6914 11.2318H64.7705V11.2308ZM63.0166 11.2308H63.0996L63.0977 9.6781H61.9434L61.9492 13.8129H63.1035L63.1006 12.2006L63.0225 12.2015L62.7568 12.2025L63.0225 12.2006M63.0166 11.2308V11.2318H63.0996L63.1006 12.1986L63.0225 12.1996V12.2006M63.0166 11.2308L63.0225 12.2006M63.0166 11.2308V11.348L63.0215 12.2006H63.0225M64.6904 11.2318L64.6914 12.1937L63.1025 12.1986L63.1016 11.2318H64.6904Z" fill="#202020" stroke="#202020" stroke-width="0.00141782"/>
<path d="M67.8828 12.9154H67.8096L67.8125 12.1527L67.7402 12.1537L67.5449 12.1547L67.7383 12.1527L67.7344 11.4779V11.2845L67.7402 12.1527L67.8125 12.1517L67.8174 11.2845L67.7344 11.2855V11.2836L67.8174 11.2826L67.8213 10.5814L67.8223 10.4916V10.5804L69.8809 10.5746L69.8926 9.6781H66.6787L66.6729 13.8129H69.9629L69.9678 12.9105L67.8828 12.9154ZM67.8828 12.9154L67.9014 12.9164H67.8105L67.8828 12.9154ZM69.6406 12.1469H69.6416L67.8135 12.1517L67.8184 11.2845L69.6455 11.2797L69.6406 12.1469Z" fill="#202020" stroke="#202020" stroke-width="0.00141782"/>
<path d="M74.3975 13.8129H73.1553L72.4121 12.7152H72.4922C72.8678 12.7152 73.1919 12.6548 73.4639 12.5345L73.5098 12.5101L74.3975 13.8129ZM73.5098 12.5092L73.4629 12.5336C73.1911 12.6537 72.8676 12.7142 72.4922 12.7142H72.4111L72.1357 12.308H73.3721V12.307L73.5098 12.5092ZM71.7754 12.349V12.7142H71.2607L71.7129 12.2845L71.7754 12.349ZM71.7754 12.3461L71.7139 12.2836L71.7754 12.225V12.3461ZM71.7754 11.8109V12.224L71.7129 12.2816L71.2617 11.8109H71.7754ZM71.2598 11.8119L71.2588 11.8109L71.7119 12.2836L71.2588 12.7142H71.2598L71.2607 12.7152H71.7754V13.8129H70.6152V9.6781H72.4922C72.7736 9.67811 73.0259 9.71207 73.249 9.78064L73.4629 9.86072C73.7008 9.9676 73.8917 10.1162 74.0352 10.306L74.0938 10.39C74.2421 10.6202 74.3164 10.8926 74.3164 11.2074C74.3164 11.5185 74.2423 11.7877 74.0938 12.014C73.9543 12.2266 73.7588 12.3893 73.5107 12.5082L73.373 12.306H72.1338V12.308H72.1348L72.4092 12.7142H71.7773V11.8109H72.4219C72.6036 11.8109 72.7506 11.7809 72.8633 11.7211L72.9648 11.6517C73.0843 11.5452 73.1445 11.3967 73.1445 11.2074C73.1445 11.0625 73.1102 10.9422 73.043 10.8461L72.9648 10.7582C72.8454 10.6517 72.6644 10.5981 72.4219 10.598H71.7773V10.0609H71.7754L71.2588 10.598L71.2607 10.6H71.7754V11.8099H71.2598V11.8119ZM71.7754 10.598H71.2617L71.7754 10.0629V10.598Z" fill="#202020" stroke="#202020" stroke-width="0.00141782"/>
<path d="M46.8135 24.5555V24.9383H46.2998L46.752 24.4921L46.8135 24.5555ZM46.8135 24.5526L46.7529 24.4911L46.8135 24.4315V24.5526ZM46.8135 24.0174V24.4305L46.752 24.4901L46.2998 24.0174H46.8135ZM46.2979 24.0184L46.2969 24.0174L46.751 24.4911L46.2969 24.9383L46.2979 24.9393H46.8135V26.0194H45.6533V21.8846H47.5303C47.8117 21.8846 48.064 21.9186 48.2871 21.9872L48.501 22.0672C48.7389 22.1741 48.9297 22.3227 49.0732 22.5126L49.1318 22.5965C49.2802 22.8267 49.3544 23.0992 49.3545 23.4139C49.3545 23.725 49.2804 23.9951 49.1318 24.2235C49.0204 24.3948 48.8741 24.5367 48.6934 24.6493L48.501 24.7518C48.2292 24.8758 47.9057 24.9383 47.5303 24.9383H46.8154V24.0174H47.46C47.6417 24.0174 47.7887 23.9874 47.9014 23.9276L48.0029 23.8583C48.1224 23.7517 48.1826 23.6032 48.1826 23.4139C48.1826 23.2691 48.1483 23.1487 48.0811 23.0526L48.0029 22.9647C47.8835 22.8582 47.7025 22.8046 47.46 22.8046H46.8154V22.2674H46.8135L46.2969 22.8046L46.2988 22.8065H46.8135V24.0165H46.2979V24.0184ZM46.8135 22.8046H46.2998L46.8135 22.2694V22.8046Z" fill="#202020" stroke="#202020" stroke-width="0.00141782"/>
<path d="M51.0732 21.8846L51.0791 25.0926H50.9336L51.0801 25.0936L53.0332 25.0985L53.0391 26.0194H49.9248L49.9189 21.8846H51.0732Z" fill="#202020" stroke="#202020" stroke-width="0.00141782"/>
<path d="M56.3418 24.3544L56.6416 25.2157H56.293L55.9492 24.3544H56.3418ZM55.9482 24.3544L56.292 25.2157H54.5518L54.8945 24.3544H55.9482ZM54.8936 24.3544L54.5498 25.2157H54.0371L54.3369 24.3544H54.8936ZM54.335 24.3534L54.0361 25.2167H54.0371L54.0391 25.2176H54.5498L54.2295 26.0194H53.0459L54.8584 21.8837V21.8846H56.002L57.8213 26.0194H56.6133L56.293 25.2176H56.6426V25.2157L56.3438 24.3534H55.9492L55.4219 23.0311L55.6514 22.4569H55.6504L55.6484 22.4559H55.1924V22.4569L55.4209 23.0301L54.8936 24.3534H54.3359V24.3514L54.335 24.3534ZM55.6494 22.4579L55.4209 23.0282L55.1934 22.4579H55.6494Z" fill="#202020" stroke="#202020" stroke-width="0.00141782"/>
<path d="M61.3701 24.6366H60.9268L60.9248 24.0956L61.3701 24.6366ZM59.2881 23.2674V23.8133L58.8389 23.2674H59.2881ZM58.8359 23.2665L59.2881 23.8153V26.0194H58.1572L58.1514 21.8846H59.1064V21.8837L60.9238 24.0946L60.9258 24.6376L60.5928 24.6385H61.3721V24.6366H61.373L60.9248 24.0926L60.9209 21.8846H62.0576V26.0194H61.1025L59.2891 23.8143V23.2655H58.8369V23.2674L58.8359 23.2665Z" fill="#202020" stroke="#202020" stroke-width="0.00141782"/>
<path d="M66.1025 24.6366H65.6592L65.6572 24.0956L66.1025 24.6366ZM64.0205 23.2674V23.8133L63.5713 23.2674H64.0205ZM63.5684 23.2665L64.0205 23.8153V26.0194H62.8896L62.8838 21.8846H63.8389V21.8837L65.6562 24.0946L65.6582 24.6376L65.3252 24.6385H66.1045V24.6366H66.1055L65.6572 24.0926L65.6533 21.8846H66.79V26.0194H65.835L64.0215 23.8143V23.2655H63.5693V23.2674L63.5684 23.2665Z" fill="#202020" stroke="#202020" stroke-width="0.00141782"/>
<path d="M68.8213 25.1219H68.748L68.751 24.3592L68.6787 24.3602L68.4834 24.3612L68.6768 24.3592L68.6729 23.6844V23.4911L68.6787 24.3592L68.751 24.3583L68.7559 23.4911L68.6729 23.4921V23.4901L68.7559 23.4891L68.7598 22.7879L68.7607 22.6981V22.787L70.8193 22.7811L70.8311 21.8846H67.6172L67.6113 26.0194H70.9014L70.9062 25.1171L68.8213 25.1219ZM68.8213 25.1219L68.8398 25.1229H68.749L68.8213 25.1219ZM70.5791 24.3534H70.5801L68.752 24.3583L68.7568 23.4911L70.584 23.4862L70.5791 24.3534Z" fill="#202020" stroke="#202020" stroke-width="0.00141782"/>
<path d="M75.3369 26.0194H74.0947V26.0204L73.3516 24.9217H73.4316C73.8072 24.9217 74.1313 24.8613 74.4033 24.7411L74.4492 24.7167L75.3369 26.0194ZM74.4492 24.7157L74.4023 24.7401C74.1306 24.8602 73.8071 24.9207 73.4316 24.9208H73.3506L73.0752 24.5145H74.3115V24.5135L74.4492 24.7157ZM72.7148 24.5555V24.9208H72.2002L72.6523 24.4911L72.7148 24.5555ZM72.7148 24.5526L72.6533 24.4901L72.7148 24.4315V24.5526ZM72.7148 24.0174V24.4305L72.6523 24.4881L72.2012 24.0174H72.7148ZM72.1992 24.0184L72.1982 24.0174L72.6514 24.4901L72.1982 24.9208H72.1992L72.2002 24.9217H72.7148V26.0194H71.5547V21.8846H73.4316C73.713 21.8846 73.9653 21.9186 74.1885 21.9872L74.4023 22.0672C74.6403 22.1741 74.8311 22.3227 74.9746 22.5126L75.0332 22.5965C75.1816 22.8267 75.2558 23.0992 75.2559 23.4139C75.2559 23.725 75.1818 23.9942 75.0332 24.2206C74.8937 24.4331 74.6983 24.5958 74.4502 24.7147L74.3125 24.5126H73.0732V24.5145H73.0742L73.3486 24.9208H72.7168V24.0174H73.3613C73.5431 24.0174 73.6901 23.9874 73.8027 23.9276L73.9043 23.8583C74.0238 23.7517 74.084 23.6032 74.084 23.4139C74.0839 23.2691 74.0497 23.1487 73.9824 23.0526L73.9043 22.9647C73.7848 22.8582 73.6038 22.8046 73.3613 22.8046H72.7168V22.2674H72.7148L72.1982 22.8046L72.2002 22.8065H72.7148V24.0165H72.1992V24.0184ZM72.7148 22.8046H72.2012L72.7148 22.2694V22.8046Z" fill="#202020" stroke="#202020" stroke-width="0.00141782"/>
</svg>
