<svg width="132" height="98" viewBox="0 0 132 98" fill="none" xmlns="http://www.w3.org/2000/svg">
<path d="M16.4775 26.8125C17.8747 26.8138 19.2741 27.1644 20.4961 27.8652L20.7383 28.0107L22.6582 29.209C23.5396 29.759 24.5554 30.069 25.5898 30.1387L26.0342 30.1533C27.2177 30.1544 28.4021 29.8406 29.4141 29.2119L31.3203 28.0273C32.5175 27.2837 33.905 26.8891 35.3037 26.8438L35.584 26.8398C36.9811 26.8412 38.3797 27.1928 39.6016 27.8936L39.8438 28.0381L41.7637 29.2363C42.6454 29.7866 43.6615 30.0965 44.6963 30.166L45.1396 30.1807C46.2494 30.1817 47.3598 29.9062 48.3281 29.3535L48.5195 29.2393L50.4258 28.0557C51.6229 27.3119 53.0105 26.9174 54.4092 26.8721L54.6895 26.8672C56.0868 26.8685 57.4859 27.2199 58.708 27.9209L58.9492 28.0654L60.8691 29.2637C61.7508 29.814 62.767 30.1238 63.8018 30.1934L64.2461 30.209C65.3555 30.2099 66.4655 29.9342 67.4336 29.3818L67.625 29.2676L69.5312 28.083C70.8082 27.2897 72.3022 26.8932 73.7949 26.8945C75.1922 26.8958 76.5914 27.2473 77.8135 27.9482L78.0557 28.0928L79.9746 29.291L80.166 29.4053C81.0019 29.8843 81.9465 30.1561 82.9072 30.2207L83.3516 30.2363C84.461 30.2373 85.5709 29.9616 86.5391 29.4092L86.7305 29.2949L88.6377 28.1104C89.8349 27.3666 91.2223 26.972 92.6211 26.9268L92.9004 26.9229C94.2976 26.9241 95.6969 27.2747 96.9189 27.9756L97.1611 28.1201L99.0811 29.3184C99.9626 29.8685 100.978 30.1794 102.013 30.249L102.457 30.2637C103.567 30.2647 104.676 29.9889 105.645 29.4365L105.837 29.3223L107.743 28.1377C108.94 27.394 110.328 26.9994 111.727 26.9541L112.007 26.9502C113.404 26.9515 114.803 27.3023 116.024 28.0029L116.267 28.1484L118.187 29.3467C119.068 29.8967 120.084 30.2067 121.118 30.2764L121.562 30.291C122.746 30.2921 123.93 29.9783 124.942 29.3496L126.849 28.165C128.046 27.4213 129.433 27.0268 130.832 26.9814L131.112 26.9775C131.408 26.9778 131.705 26.9927 131.999 27.0244V28.7354C131.853 28.7156 131.705 28.7014 131.558 28.6914L131.112 28.6768C130.003 28.6758 128.893 28.9515 127.925 29.5039L127.732 29.6182L125.875 30.7725L125.826 30.8027C124.549 31.596 123.055 31.9916 121.562 31.9902L121.283 31.9854C119.98 31.9406 118.685 31.5914 117.545 30.9375L117.303 30.792L115.383 29.5938C114.501 29.0435 113.485 28.7336 112.45 28.6641L112.007 28.6494C110.844 28.6483 109.68 28.9522 108.68 29.5596C108.662 29.5701 108.644 29.5801 108.627 29.5908L106.721 30.7754C105.524 31.5191 104.136 31.9127 102.737 31.958L102.457 31.9629C101.06 31.9616 99.6606 31.6102 98.4385 30.9092L98.1973 30.7646L96.2773 29.5664C95.3957 29.0161 94.3795 28.7063 93.3447 28.6367L92.9004 28.6211C91.791 28.6201 90.681 28.8959 89.7129 29.4482L89.5215 29.5625L87.6143 30.7471C86.3374 31.5403 84.8442 31.9369 83.3516 31.9355L83.0723 31.9307C81.7686 31.886 80.4737 31.5361 79.333 30.8818L79.0908 30.7373L78.9326 30.6387L77.1719 29.5391C76.2903 28.9888 75.2739 28.679 74.2393 28.6094L73.7949 28.5938C72.6855 28.5928 71.5756 28.8685 70.6074 29.4209L70.416 29.5352L68.5088 30.7197C67.2319 31.513 65.7387 31.9095 64.2461 31.9082L63.9668 31.9033C62.6631 31.8587 61.3682 31.5087 60.2275 30.8545L59.9854 30.71L58.0654 29.5117C58.0503 29.5023 58.0347 29.4937 58.0195 29.4844C57.1487 28.9518 56.1506 28.6505 55.1338 28.582L54.6895 28.5664C53.58 28.5654 52.4701 28.8412 51.502 29.3936L51.3096 29.5078L49.4033 30.6924C48.1264 31.4857 46.6324 31.8812 45.1396 31.8799L44.8604 31.875C43.557 31.8302 42.2625 31.4811 41.1221 30.8271L40.8799 30.6816L38.96 29.4844L38.9189 29.46C38.0467 28.9253 37.0464 28.6222 36.0273 28.5537L35.584 28.5391C34.403 28.538 33.2214 28.8506 32.2109 29.4766C32.2088 29.4779 32.2063 29.4791 32.2041 29.4805L30.2979 30.665C29.0209 31.4584 27.5269 31.8539 26.0342 31.8525L25.7549 31.8477C24.4513 31.8029 23.1562 31.454 22.0156 30.7998L21.7744 30.6543L19.8545 29.4561C18.9729 28.9058 17.9566 28.5959 16.9219 28.5264L16.4775 28.5117C15.2972 28.5107 14.1166 28.8228 13.1064 29.4482C13.1039 29.4498 13.1012 29.4515 13.0986 29.4531L11.1924 30.6377C9.91544 31.431 8.42146 31.8265 6.92871 31.8252L6.64941 31.8203C5.3457 31.7756 4.05086 31.4258 2.91016 30.7715L2.66797 30.627L0 28.9619H0.000976562V26.9639L3.55176 29.1807L3.74316 29.2949C4.5791 29.774 5.52359 30.0467 6.48438 30.1113L6.92871 30.126C8.03823 30.127 9.14805 29.8513 10.1162 29.2988L10.3076 29.1846L12.2148 28L12.457 27.8564C13.5973 27.2058 14.8928 26.8586 16.1982 26.8164L16.4775 26.8125Z" fill="white" stroke="white" stroke-width="0.00141782"/>
<path d="M35.6538 64.7947L48.9727 56.8428L59.5576 75.5836" stroke="white" stroke-width="0.960334" stroke-miterlimit="57.2987" stroke-linecap="round" stroke-linejoin="round"/>
<path d="M44.7675 96.9991L25.4929 37.5107" stroke="white" stroke-width="0.960334" stroke-miterlimit="57.2987" stroke-linecap="round" stroke-linejoin="round"/>
<path d="M27.7278 17.4229L29.8584 22.013M33.0192 28.7322L42.4523 46.9502L53.6953 39.2421L71.7352 57.9573" stroke="white" stroke-width="0.960334" stroke-miterlimit="57.2987" stroke-linecap="round" stroke-linejoin="round"/>
<path d="M62.477 30.8467C60.242 24.9334 56.8485 16.2068 54.7483 10.8054L50.1402 14.7385L40.8711 1L27.7274 17.4217L23.9156 10.838L11.7046 55.7516L19.4267 62.646L25.6634 82.3326L44.7669 97L71.7348 57.9561C69.2412 50.5969 67.0314 44.6662 64.4417 37.4066" stroke="white" stroke-width="0.960334" stroke-miterlimit="12.7455" stroke-linecap="round" stroke-linejoin="round"/>
<path d="M80.3203 15.3623V16.8955L78.2402 16.8867H78.2393L78.2383 16.9961L78.248 22.207H76.3418V22.208L76.332 16.8965L74.25 16.8867H74.251V15.3623H80.3203Z" fill="white" stroke="white" stroke-width="0.00141782"/>
<path d="M82.7915 18.0215L82.9292 18.0205L82.936 16.8574L86.3345 16.8477L86.353 15.3623H81.0493L81.0396 22.207H86.4702V22.208L86.478 20.7119L82.9175 20.7207V20.7217H82.9165L82.9224 19.459L82.8013 19.46M82.7915 18.0215V18.0225L82.9292 18.0215L82.9224 19.458L82.8013 19.459V19.46M82.7915 18.0215L82.8013 19.46M82.7915 18.0215V18.2168L82.8003 19.46H82.8013M85.937 19.4492L82.9233 19.458L82.9302 18.0215L85.9458 18.0127L85.937 19.4492Z" fill="white" stroke="white" stroke-width="0.00141782"/>
<path d="M91.0308 16.3096H91.0298H90.2769V16.3125L90.6528 17.2607L89.7847 19.4492H88.8628L88.3687 20.8779H88.3696L88.3716 20.8789H89.2163L88.688 22.207H86.7339L89.7251 15.3613V15.3623H91.6118L94.6138 22.207H92.6206L92.0923 20.8789H92.6685V20.877L92.1753 19.4492H91.5249L90.6548 17.2598L91.0327 16.3105H91.0317V16.3096H91.0308ZM92.1733 19.4502L92.6675 20.877H92.0923L91.5249 19.4502H92.1733ZM92.0903 20.877H89.2183L89.7847 19.4502H91.5239L92.0903 20.877ZM89.7837 19.4502L89.2173 20.877H88.3696L88.8638 19.4502H89.7837ZM90.6538 17.2578L90.2778 16.3105H91.0308L90.6538 17.2578Z" fill="white" stroke="white" stroke-width="0.00141782"/>
<path d="M98.4382 15.2266C98.9858 15.2266 99.4831 15.3108 99.9294 15.4805L100.118 15.5586C100.611 15.7801 101.022 16.0998 101.351 16.5166L100.133 17.6309C99.9682 17.4357 99.7921 17.2752 99.6042 17.1494L99.4119 17.0352L99.2097 16.9453C99.0021 16.8683 98.777 16.8291 98.5349 16.8291C98.2574 16.8291 98.0026 16.8755 97.7703 16.9668C97.6214 17.0253 97.488 17.1024 97.3669 17.1943C97.3462 17.2101 97.3244 17.2245 97.3044 17.2412L97.1746 17.3633C97.01 17.5362 96.8805 17.743 96.7869 17.9844L96.7253 18.1699C96.6726 18.3609 96.6462 18.5668 96.6462 18.7871C96.6463 19.0804 96.6934 19.3476 96.7869 19.5889L96.864 19.7637C96.9198 19.876 96.9838 19.9801 97.0574 20.0752L97.1746 20.2109C97.2981 20.3406 97.4406 20.4475 97.6023 20.5312L97.7703 20.6074C98.0026 20.6987 98.2575 20.7441 98.5349 20.7441C98.7769 20.7441 99.0021 20.7059 99.2097 20.6289L99.4119 20.5391C99.6733 20.4021 99.9131 20.2023 100.133 19.9414L101.351 21.0566C101.064 21.4157 100.713 21.7039 100.3 21.9209L100.118 22.0098C99.6242 22.2347 99.0642 22.3477 98.4382 22.3477L98.239 22.3438C97.8449 22.3275 97.4735 22.2619 97.1248 22.1484L96.9529 22.0879C96.5548 21.9367 96.2034 21.7294 95.8992 21.4658L95.7712 21.3496C95.4805 21.0701 95.2458 20.7467 95.0662 20.3799L94.9919 20.2197L94.988 20.21C94.8037 19.779 94.7117 19.3048 94.7117 18.7871C94.7117 18.3306 94.7832 17.9076 94.9265 17.5186L94.9919 17.3535C95.1557 16.9742 95.3753 16.6387 95.6501 16.3467L95.7712 16.2236C96.0621 15.9441 96.4002 15.721 96.7849 15.5537L96.9529 15.4854C97.4077 15.3127 97.9028 15.2266 98.4382 15.2266Z" fill="white" stroke="white" stroke-width="0.00141782"/>
<path d="M108.653 22.207H106.747L106.743 19.5293H106.872V19.5283L106.873 19.7373V17.9336H106.872V17.9326H106.741L106.737 15.3623H108.643V15.3613L108.653 22.207ZM104.112 15.3613L104.115 17.9326H103.976V17.9336L103.986 19.5381L103.719 19.5391H103.986L104.117 19.5381L104.121 22.207H102.216L102.206 15.3623H104.112V15.3613ZM104.115 17.9346L104.117 19.5361H103.986L103.977 17.9346H104.115ZM106.739 17.9346L106.741 19.5273L104.119 19.5361L104.117 17.9346H106.739ZM106.871 17.9346V19.5273H106.743L106.741 17.9346H106.871Z" fill="white" stroke="white" stroke-width="0.00141782"/>
<path d="M111.761 18.0215L111.899 18.0205L111.906 16.8574L115.304 16.8477L115.323 15.3623H110.019L110.01 22.207H115.44V22.208L115.448 20.7119L111.887 20.7207V20.7217H111.886L111.892 19.459L111.771 19.46M111.761 18.0215V18.0225L111.899 18.0215L111.892 19.458L111.771 19.459V19.46M111.761 18.0215L111.771 19.46M111.761 18.0215V18.2168L111.77 19.46H111.771M114.907 19.4492L111.893 19.458L111.9 18.0215L114.916 18.0127L114.907 19.4492Z" fill="white" stroke="white" stroke-width="0.00141782"/>
<path d="M122.757 22.207H120.706L119.478 20.3896H119.612C120.154 20.3896 120.631 20.3135 121.043 20.1611L121.215 20.0908L121.293 20.0527L122.757 22.207ZM121.064 19.7148L121.292 20.0508L121.214 20.0898C120.765 20.2886 120.231 20.3877 119.612 20.3877H119.477L119.023 19.7148H121.064ZM118.429 19.7812V20.3877H117.581L118.327 19.6758L118.429 19.7812ZM118.429 19.7793L118.328 19.6748L118.429 19.5781V19.7793ZM118.429 18.8926V19.5762L118.327 19.6738L117.58 18.8926H118.429ZM117.579 18.8936L117.578 18.8926L118.326 19.6748L117.578 20.3887H117.579V20.3896H118.429V22.207H116.514V15.3623H119.612C120.154 15.3623 120.631 15.4391 121.042 15.5938L121.214 15.665C121.606 15.8417 121.92 16.0869 122.157 16.4004L122.158 16.4014L122.255 16.54C122.447 16.8387 122.563 17.1807 122.604 17.5654C122.609 17.6105 122.614 17.6559 122.617 17.7021L122.623 17.8945C122.623 18.4095 122.5 18.8547 122.255 19.2295C122.024 19.5815 121.703 19.854 121.294 20.0508L121.065 19.7139H121.064L121.065 19.7129H119.021V19.7148L119.02 19.7139L119.475 20.3877H118.431V18.8926H119.496C119.546 18.8926 119.594 18.8914 119.641 18.8887C119.922 18.8721 120.146 18.8061 120.313 18.6904L120.391 18.6289C120.588 18.4527 120.687 18.2077 120.687 17.8945C120.687 17.6146 120.612 17.3896 120.461 17.2197L120.391 17.1504C120.219 16.9965 119.969 16.9099 119.641 16.8906L119.496 16.8867H118.431V15.9971H118.429V15.998L117.578 16.8867H117.579V16.8877H118.429V18.8916H117.579V18.8936ZM118.429 16.8867H117.58L118.429 16V16.8867Z" fill="white" stroke="white" stroke-width="0.00141782"/>
<path d="M77.2424 39.9863V40.623H76.3928L77.1418 39.8828L77.2424 39.9863ZM77.2424 39.9844L77.1428 39.8818L77.2424 39.7832V39.9844ZM77.2424 39.0977V39.7812L77.1418 39.8809L76.3928 39.0977H77.2424ZM76.3918 39.0986L76.3909 39.0977L77.1409 39.8818L76.3909 40.623H76.3918V40.624H77.2424V42.4121H75.3274V35.5674H78.425C78.967 35.5674 79.4437 35.6442 79.8547 35.7988L80.0266 35.8701C80.4186 36.0467 80.7333 36.2919 80.97 36.6055L80.9709 36.6064L81.0676 36.7451C81.2597 37.0438 81.3756 37.3858 81.4172 37.7705C81.4221 37.8155 81.4271 37.861 81.4299 37.9072L81.4358 38.0996C81.4358 38.6146 81.3128 39.0614 81.0676 39.4395C80.8531 39.7702 80.5607 40.0348 80.1907 40.2334L80.0266 40.3145C79.6343 40.494 79.1767 40.5957 78.6536 40.6182C78.5787 40.6214 78.5026 40.623 78.425 40.623H77.2444V39.0977H78.3088C78.3589 39.0977 78.4074 39.0965 78.4543 39.0938C78.7355 39.0772 78.9594 39.0112 79.1262 38.8955L79.2043 38.834C79.4014 38.6578 79.5002 38.4128 79.5002 38.0996C79.5002 37.8197 79.4248 37.5947 79.2737 37.4248L79.2043 37.3555C79.032 37.2015 78.7819 37.115 78.4543 37.0957L78.3088 37.0918H77.2444V36.2021H77.2424V36.2031L76.3909 37.0918H76.3918V37.0928H77.2424V39.0967H76.3918V39.0986ZM77.2424 37.0918H76.3928L77.2424 36.2051V37.0918Z" fill="white" stroke="white" stroke-width="0.00141782"/>
<path d="M84.272 35.5664L84.2808 40.8779H84.2817L87.5063 40.8877H87.5054L87.5151 42.4121H82.3755L82.3657 35.5674H84.272V35.5664Z" fill="white" stroke="white" stroke-width="0.00141782"/>
<path d="M91.822 36.5146H91.821H91.0681V36.5176L91.4441 37.4658L90.5759 39.6543H89.6541L89.1599 41.083H89.1609L89.1628 41.084H90.0076L89.4792 42.4121H87.5251L90.5164 35.5664V35.5674H92.4031L95.405 42.4121H93.4119L92.8835 41.084H93.4597V41.082L92.9666 39.6543H92.3162L91.446 37.4648L91.824 36.5156H91.823V36.5146H91.822ZM92.9646 39.6553L93.4587 41.082H92.8835L92.3162 39.6553H92.9646ZM92.8816 41.082H90.0095L90.5759 39.6553H92.3152L92.8816 41.082ZM90.575 39.6553L90.0085 41.082H89.1609L89.655 39.6553H90.575ZM91.4451 37.4629L91.0691 36.5156H91.822L91.4451 37.4629Z" fill="white" stroke="white" stroke-width="0.00141782"/>
<path d="M100.528 40.124H100.527L100.525 39.2236L97.5264 35.5664V35.5674H95.9492L95.959 42.4121H97.8262V38.7646L97.0801 37.8555L97.0811 37.8564V37.8545H97.8262V37.8555M100.528 40.124L100.526 39.2256L101.263 40.124H100.528ZM100.528 40.124L100.194 40.125H101.264V40.123L101.265 40.124L100.526 39.2236L100.52 35.5674H102.396V42.4121H100.818L97.8271 38.7627V37.8555H97.8262M97.8262 37.8555V38.7617L97.083 37.8555H97.8262Z" fill="white" stroke="white" stroke-width="0.00141782"/>
<path d="M108.337 40.124H108.336L108.334 39.2236L105.335 35.5664V35.5674H103.758L103.767 42.4121H105.635V38.7646L104.888 37.8555L104.889 37.8564V37.8545H105.635V37.8555M108.337 40.124L108.335 39.2256L109.071 40.124H108.337ZM108.337 40.124L108.003 40.125H109.072V40.123L109.073 40.124L108.335 39.2236L108.328 35.5674H110.205V42.4121H108.627L105.635 38.7627V37.8555H105.635M105.635 37.8555V38.7617L104.891 37.8555H105.635Z" fill="white" stroke="white" stroke-width="0.00141782"/>
<path d="M113.31 38.2266L113.448 38.2256L113.455 37.0625L116.853 37.0527L116.872 35.5674H111.568L111.558 42.4121H116.989V42.4131L116.997 40.917L113.436 40.9258V40.9268H113.435L113.441 39.6641L113.32 39.665L113.123 39.666L113.319 39.665L113.31 38.4219V38.2266ZM113.31 38.2266V38.2275L113.448 38.2266L113.441 39.6631H113.319L113.31 38.2266ZM116.456 39.6543L113.442 39.6631L113.449 38.2266L116.464 38.2178L116.456 39.6543Z" fill="white" stroke="white" stroke-width="0.00141782"/>
<path d="M124.307 42.4121H122.256L121.029 40.5947H121.162C121.705 40.5947 122.182 40.5186 122.593 40.3662L122.765 40.2959L122.843 40.2578L124.307 42.4121ZM122.615 39.9199L122.842 40.2559L122.764 40.2949C122.316 40.4937 121.782 40.5927 121.162 40.5928H121.028L120.573 39.9199H122.615ZM119.98 39.9863V40.5928H119.131L119.877 39.8809L119.98 39.9863ZM119.98 39.9844L119.878 39.8799L119.98 39.7832V39.9844ZM119.98 39.0977V39.7812L119.877 39.8789L119.13 39.0977H119.98ZM119.129 39.0986L119.128 39.0977L119.876 39.8799L119.128 40.5938H119.129V40.5947H119.98V42.4121H118.065V35.5674H121.162C121.704 35.5674 122.181 35.6442 122.592 35.7988L122.764 35.8701C123.156 36.0467 123.471 36.2919 123.707 36.6055L123.708 36.6064L123.805 36.7451C123.997 37.0438 124.113 37.3858 124.155 37.7705C124.159 37.8155 124.164 37.861 124.167 37.9072L124.173 38.0996C124.173 38.6146 124.05 39.0598 123.805 39.4346C123.575 39.7866 123.254 40.0591 122.844 40.2559L122.615 39.9189H122.615L122.615 39.918H120.572V39.9199L120.571 39.9189L121.026 40.5928H119.982V39.0977H121.046C121.096 39.0977 121.145 39.0965 121.192 39.0938C121.473 39.0772 121.697 39.0112 121.864 38.8955L121.942 38.834C122.139 38.6578 122.238 38.4128 122.238 38.0996C122.238 37.8197 122.162 37.5947 122.011 37.4248L121.942 37.3555C121.769 37.2016 121.519 37.115 121.192 37.0957L121.046 37.0918H119.982V36.2021H119.98V36.2031L119.128 37.0918H119.129V37.0928H119.98V39.0967H119.129V39.0986ZM119.98 37.0918H119.13L119.98 36.2051V37.0918Z" fill="white" stroke="white" stroke-width="0.00141782"/>
</svg>
